<?xml version="1.0" encoding="UTF-8"?>
<svg id="Layer_1" xmlns="http://www.w3.org/2000/svg" xmlns:xlink="http://www.w3.org/1999/xlink" version="1.1" viewBox="0 0 144 72">
  <!-- Generator: Adobe Illustrator 29.5.1, SVG Export Plug-In . SVG Version: 2.1.0 Build 141)  -->
  <defs>
    <style>
      .st0 {
        fill: none;
      }

      .st1 {
        fill: url(#linear-gradient2);
      }

      .st2 {
        fill: url(#linear-gradient1);
      }

      .st3 {
        fill: url(#linear-gradient3);
      }

      .st4 {
        fill: url(#linear-gradient);
      }

      .st5 {
        clip-path: url(#clippath);
      }
    </style>
    <clipPath id="clippath">
      <rect class="st0" x=".96" y="8.3" width="143.04" height="56.58"/>
    </clipPath>
    <linearGradient id="linear-gradient" x1=".96" y1="36.36" x2="82.22" y2="36.36" gradientUnits="userSpaceOnUse">
      <stop offset="0" stop-color="#1f2557"/>
      <stop offset=".47" stop-color="#23b79c"/>
      <stop offset=".53" stop-color="#23b79c"/>
    </linearGradient>
    <linearGradient id="linear-gradient1" x1="86.62" y1="36.36" x2="142.73" y2="36.36" xlink:href="#linear-gradient"/>
    <linearGradient id="linear-gradient2" x1="149.74" x2="231" xlink:href="#linear-gradient"/>
    <linearGradient id="linear-gradient3" x1="235.4" y1="36.36" x2="291.51" y2="36.36" xlink:href="#linear-gradient"/>
  </defs>
  <g class="st5">
    <g id="_x3C_Grid_Repeat_x3E_">
      <path class="st4" d="M55.39,63.18h-27.6C12.99,63.18.96,51.15.96,36.36S12.99,9.53,27.79,9.53h27.6c14.79,0,26.83,12.03,26.83,26.83s-12.03,26.83-26.83,26.83ZM27.79,17.89c-10.18,0-18.46,8.28-18.46,18.46s8.28,18.46,18.46,18.46h27.6c10.18,0,18.46-8.28,18.46-18.46s-8.28-18.46-18.46-18.46h-27.6Z"/>
      <path class="st2" d="M114.68,64.41c-15.47,0-28.06-12.59-28.06-28.06s12.59-28.06,28.06-28.06,28.06,12.59,28.06,28.06-12.59,28.06-28.06,28.06ZM114.68,16.66c-10.86,0-19.69,8.83-19.69,19.69s8.83,19.69,19.69,19.69,19.69-8.83,19.69-19.69-8.83-19.69-19.69-19.69Z"/>
      <path class="st1" d="M204.17,63.18h-27.6c-14.79,0-26.83-12.03-26.83-26.83s12.03-26.83,26.83-26.83h27.6c14.79,0,26.83,12.03,26.83,26.83s-12.03,26.83-26.83,26.83ZM176.57,17.89c-10.18,0-18.46,8.28-18.46,18.46s8.28,18.46,18.46,18.46h27.6c10.18,0,18.46-8.28,18.46-18.46s-8.28-18.46-18.46-18.46h-27.6Z"/>
      <path class="st3" d="M263.46,64.41c-15.47,0-28.06-12.59-28.06-28.06s12.59-28.06,28.06-28.06,28.06,12.59,28.06,28.06-12.59,28.06-28.06,28.06ZM263.46,16.66c-10.86,0-19.69,8.83-19.69,19.69s8.83,19.69,19.69,19.69,19.69-8.83,19.69-19.69-8.83-19.69-19.69-19.69Z"/>
    </g>
  </g>
</svg>